<svg width="40" height="40" viewBox="0 0 40 40" fill="none" xmlns="http://www.w3.org/2000/svg">
<path d="M32.919 14.639C32.8974 13.5606 32.6932 12.4937 32.315 11.4835C31.9893 10.6166 31.4785 9.83111 30.8182 9.18175C30.1683 8.52014 29.3818 8.00836 28.5136 7.68215C27.5035 7.30391 26.4365 7.09967 25.3582 7.07812C23.9719 7.01524 23.5289 7 19.999 7C16.4692 7 16.0252 7.01524 14.639 7.07812C13.5609 7.09983 12.4943 7.30407 11.4845 7.68215C10.617 8.00856 9.83111 8.52032 9.18175 9.18175C8.52046 9.83085 8.00871 10.6164 7.68215 11.4835C7.30393 12.4937 7.09969 13.5606 7.07812 14.639C7.01524 16.0252 7 16.4682 7 19.9981C7 23.528 7.01524 23.971 7.07812 25.3572C7.09965 26.4356 7.30389 27.5025 7.68215 28.5126C8.00816 29.3812 8.51995 30.1681 9.18175 30.8182C9.83107 31.4797 10.6169 31.9915 11.4845 32.3178C12.4946 32.6962 13.5615 32.9004 14.6399 32.9219C16.0262 32.9848 16.4692 33 19.999 33C23.5289 33 23.9719 32.9848 25.3582 32.9219C26.4366 32.9004 27.5035 32.6961 28.5136 32.3178C29.3771 31.984 30.1612 31.4733 30.8159 30.8187C31.4705 30.1641 31.9811 29.3799 32.315 28.5165C32.6932 27.5063 32.8975 26.4394 32.919 25.361C32.9819 23.9748 32.9971 23.5318 32.9971 20.0019C32.9971 16.472 32.9819 16.0252 32.919 14.639ZM30.5791 25.2514C30.5692 26.0756 30.4178 26.8919 30.1313 27.6647C29.9152 28.2254 29.5841 28.7346 29.1592 29.1596C28.7344 29.5846 28.2253 29.9159 27.6647 30.1323C26.8919 30.4187 26.0756 30.5702 25.2514 30.5801C23.8814 30.6429 23.4698 30.6563 19.999 30.6563C16.5283 30.6563 16.1167 30.6429 14.7466 30.5801C13.9232 30.5699 13.1075 30.4185 12.3353 30.1323C11.7706 29.9238 11.2598 29.5914 10.8405 29.1595C10.4075 28.7405 10.0741 28.2297 9.86486 27.6647C9.57842 26.8919 9.42696 26.0756 9.41708 25.2514C9.3542 23.8805 9.34086 23.4698 9.34086 19.999C9.34086 16.5283 9.3542 16.1167 9.41708 14.7466C9.42727 13.9232 9.57873 13.1075 9.86486 12.3353C10.073 11.7696 10.4054 11.2578 10.8376 10.8376C11.2578 10.4056 11.7696 10.0735 12.3353 9.86581C13.1081 9.57934 13.9244 9.42787 14.7486 9.41803C16.1195 9.35515 16.5302 9.34181 20.001 9.34181C23.4717 9.34181 23.8833 9.35515 25.2534 9.41803C26.0775 9.42793 26.8938 9.5794 27.6666 9.86581C28.2313 10.0744 28.7421 10.4067 29.1614 10.8385C29.5926 11.2586 29.9241 11.7701 30.1313 12.3353C30.4179 13.1081 30.5694 13.9244 30.5791 14.7486C30.642 16.1195 30.6553 16.5302 30.6553 20.001C30.6553 23.4717 30.642 23.8805 30.5791 25.2514Z" fill="#AAAAAA"/>
<path d="M20.002 13.3247C18.6818 13.3247 17.3913 13.7162 16.2936 14.4496C15.196 15.1831 14.3404 16.2255 13.8352 17.4452C13.33 18.6649 13.1979 20.0069 13.4554 21.3017C13.713 22.5965 14.3487 23.7859 15.2822 24.7193C16.2157 25.6528 17.405 26.2886 18.6998 26.5461C19.9946 26.8037 21.3366 26.6715 22.5563 26.1663C23.776 25.6611 24.8184 24.8055 25.5519 23.7079C26.2853 22.6102 26.6768 21.3197 26.6768 19.9995C26.6768 18.2293 25.9736 16.5315 24.7218 15.2797C23.47 14.0279 21.7722 13.3247 20.002 13.3247V13.3247ZM20.002 24.3325C19.145 24.3325 18.3072 24.0784 17.5947 23.6023C16.8821 23.1262 16.3267 22.4495 15.9988 21.6577C15.6708 20.866 15.585 19.9947 15.7522 19.1542C15.9194 18.3137 16.3321 17.5416 16.9381 16.9356C17.544 16.3296 18.3161 15.917 19.1566 15.7498C19.9972 15.5826 20.8684 15.6684 21.6601 15.9963C22.4519 16.3243 23.1286 16.8797 23.6047 17.5922C24.0809 18.3048 24.335 19.1425 24.335 19.9995C24.335 21.1487 23.8785 22.2508 23.0659 23.0634C22.2533 23.876 21.1512 24.3325 20.002 24.3325Z" fill="#AAAAAA"/>
<path d="M28.4962 13.0611C28.4962 13.3695 28.4047 13.6711 28.2333 13.9276C28.062 14.184 27.8184 14.3839 27.5334 14.502C27.2484 14.62 26.9349 14.6509 26.6323 14.5907C26.3298 14.5306 26.0519 14.382 25.8337 14.1639C25.6156 13.9458 25.4671 13.6679 25.4069 13.3653C25.3467 13.0628 25.3776 12.7492 25.4957 12.4642C25.6137 12.1793 25.8136 11.9357 26.0701 11.7643C26.3266 11.5929 26.6281 11.5015 26.9366 11.5015C27.3502 11.5015 27.7469 11.6658 28.0394 11.9583C28.3319 12.2508 28.4962 12.6474 28.4962 13.0611V13.0611Z" fill="#AAAAAA"/>
</svg>
