<svg width="40" height="40" viewBox="0 0 40 40" fill="none" xmlns="http://www.w3.org/2000/svg">
<path d="M33.4088 32.9984H33.4148V23.8294C33.4148 19.3444 32.4488 15.8884 27.2058 15.8884C26.2217 15.8524 25.2462 16.0841 24.3833 16.5586C23.5204 17.0332 22.8024 17.733 22.3058 18.5834H22.2328V16.3074H17.2578V32.9974H22.4348V24.7334C22.4348 22.5574 22.8478 20.4534 25.5418 20.4534C28.1968 20.4534 28.2368 22.9364 28.2368 24.8734V32.9994L33.4088 32.9984Z" fill="#AAAAAA"/>
<path d="M7.82812 16.3086H13.0071V32.9996H7.82812V16.3086Z" fill="#AAAAAA"/>
<path d="M10.4148 7.00004C9.81691 6.99688 9.2316 7.17148 8.73318 7.50166C8.23476 7.83184 7.84571 8.30271 7.61546 8.85446C7.3852 9.40621 7.32413 10.0139 7.43999 10.6005C7.55585 11.187 7.84342 11.7259 8.26618 12.1486C8.68894 12.5714 9.2278 12.859 9.81433 12.9748C10.4009 13.0907 11.0086 13.0296 11.5604 12.7994C12.1121 12.5691 12.583 12.1801 12.9132 11.6816C13.2433 11.1832 13.4179 10.5979 13.4148 10C13.4148 9.20439 13.0987 8.44133 12.5361 7.87872C11.9735 7.31611 11.2104 7.00004 10.4148 7.00004V7.00004Z" fill="#AAAAAA"/>
</svg>
