<svg width="26" height="26" viewBox="0 0 26 26" fill="none" xmlns="http://www.w3.org/2000/svg">
<path d="M20.0302 25.597C19.7873 25.5963 19.5452 25.5696 19.308 25.5175C14.7916 24.5833 10.6309 22.3927 7.30464 19.1981C4.04934 15.9964 1.79162 11.9199 0.804636 7.46195C0.688258 6.90635 0.716822 6.33015 0.887579 5.78879C1.05834 5.24743 1.36554 4.75912 1.77964 4.37084L4.66852 1.59028C4.81608 1.45074 4.9914 1.34388 5.18305 1.27668C5.3747 1.20948 5.57836 1.18345 5.78075 1.20028C5.9906 1.22218 6.19311 1.28978 6.37403 1.39833C6.55495 1.50688 6.7099 1.65376 6.82797 1.82862L10.4391 7.16584C10.5745 7.37293 10.6399 7.61802 10.6256 7.86505C10.6113 8.11207 10.518 8.34798 10.3596 8.53806L8.54686 10.7047C9.26883 12.3026 10.2913 13.7468 11.5585 14.9586C12.8176 16.2144 14.3057 17.2171 15.9424 17.9125L18.1885 16.1286C18.3772 15.9795 18.6067 15.8914 18.8467 15.8759C19.0866 15.8604 19.3256 15.9183 19.5319 16.042L24.9846 19.5664C25.1718 19.6781 25.3312 19.8307 25.4509 20.0128C25.5707 20.1949 25.6477 20.4017 25.6762 20.6178C25.7047 20.8339 25.6839 21.0536 25.6154 21.2605C25.5469 21.4674 25.4325 21.6561 25.2807 21.8125L22.4641 24.6003C22.1441 24.9187 21.7644 25.1706 21.3467 25.3417C20.929 25.5127 20.4816 25.5995 20.0302 25.597ZM5.66519 2.63028L2.7763 5.41084C2.54335 5.6279 2.37091 5.90186 2.27594 6.20578C2.18096 6.50969 2.16673 6.83309 2.23464 7.14417C3.15238 11.3274 5.26199 15.1553 8.30853 18.1653C11.4388 21.1708 15.3542 23.2312 19.6041 24.1092C19.9258 24.1764 20.2591 24.1628 20.5742 24.0695C20.8893 23.9763 21.1764 23.8062 21.4096 23.5747L24.2263 20.787L18.9613 17.3853L16.5491 19.3064C16.4567 19.3795 16.3479 19.4289 16.2321 19.4503C16.1163 19.4717 15.997 19.4644 15.8846 19.4292C13.8817 18.6912 12.0666 17.5198 10.5691 15.9986C9.02017 14.5522 7.81786 12.7746 7.05186 10.7986C7.01945 10.679 7.01838 10.553 7.04873 10.4329C7.07909 10.3127 7.13986 10.2024 7.22519 10.1125L9.17519 7.77973L5.66519 2.63028Z" fill="white"/>
</svg>
