<svg width="40" height="40" viewBox="0 0 40 40" fill="none" xmlns="http://www.w3.org/2000/svg">
<path d="M36.2891 10.0804C35.0851 10.6049 33.8118 10.9532 32.5085 11.1147C33.8819 10.2999 34.9088 9.00972 35.3945 7.48854C34.1085 8.25098 32.7016 8.78785 31.2345 9.07593C30.335 8.11532 29.1672 7.44749 27.883 7.15926C26.5989 6.87102 25.2577 6.97571 24.0338 7.4597C22.8099 7.94369 21.76 8.78462 21.0203 9.87317C20.2807 10.9617 19.8857 12.2476 19.8865 13.5636C19.8814 14.0663 19.9325 14.5681 20.0387 15.0595C17.4289 14.9314 14.8756 14.2541 12.5456 13.0717C10.2155 11.8893 8.1613 10.2285 6.51713 8.19793C5.67272 9.64111 5.41117 11.3522 5.7859 12.9817C6.16063 14.6112 7.14336 16.0362 8.53338 16.9656C7.49436 16.9363 6.47766 16.6573 5.56914 16.1524V16.2243C5.57108 17.739 6.09476 19.2068 7.05205 20.3806C8.00934 21.5545 9.3418 22.3628 10.8252 22.6695C10.2639 22.8174 9.68547 22.89 9.10505 22.8854C8.68821 22.8928 8.27179 22.8552 7.86301 22.7734C8.28604 24.0763 9.10276 25.216 10.2006 26.0353C11.2985 26.8547 12.6235 27.3135 13.993 27.3484C11.6708 29.1641 8.80696 30.1491 5.85909 30.1459C5.33438 30.1496 4.80996 30.1197 4.28906 30.0564C7.28884 31.9892 10.7843 33.0115 14.3529 32.9999C26.4247 32.9999 33.0246 23.0006 33.0246 14.3337C33.0246 14.0437 33.0143 13.7641 33.0009 13.4855C34.2949 12.5597 35.4091 11.4058 36.2891 10.0804V10.0804Z" fill="#AAAAAA"/>
</svg>
