<svg width="40" height="40" viewBox="0 0 40 40" fill="none" xmlns="http://www.w3.org/2000/svg">
<path fill-rule="evenodd" clip-rule="evenodd" d="M36.0946 8.99577C36.6512 9.57011 37.0524 10.2847 37.2582 11.0686C38.0297 13.9743 37.9998 20.0303 37.9998 20.0303C37.9998 20.0303 37.9998 26.0566 37.2582 28.9623C37.0522 29.7459 36.651 30.4603 36.0944 31.0345C35.5378 31.6086 34.8452 32.0225 34.0855 32.235C31.2636 33 19.9999 33 19.9999 33C19.9999 33 8.76118 33 5.91437 32.2052C5.1547 31.9926 4.46217 31.5787 3.90558 31.0046C3.34899 30.4304 2.94771 29.7161 2.74161 28.9325C2 26.0566 2 20.0005 2 20.0005C2 20.0005 2 13.9743 2.74161 11.0686C2.95133 10.2834 3.35334 9.56716 3.90898 8.9886C4.46463 8.41004 5.15522 7.98866 5.91437 7.76498C8.73128 7 19.9999 7 19.9999 7C19.9999 7 31.2686 7 34.0855 7.7948C34.8453 8.00739 35.538 8.42144 36.0946 8.99577ZM25.7838 20.001L16.4141 25.5677V14.4344L25.7838 20.001Z" fill="#AAAAAA"/>
</svg>
